<?xml version="1.0" standalone="no"?>
<!DOCTYPE svg PUBLIC "-//W3C//DTD SVG 20010904//EN"
 "http://www.w3.org/TR/2001/REC-SVG-20010904/DTD/svg10.dtd">
<svg version="1.0" xmlns="http://www.w3.org/2000/svg"
 width="920.000000pt" height="947.000000pt" viewBox="0 0 920.000000 947.000000"
 preserveAspectRatio="xMidYMid meet">

<g transform="translate(0.000000,947.000000) scale(0.100000,-0.100000)"
fill="#000000" stroke="none">
<path d="M3735 8655 c-5 -2 -22 -6 -36 -9 -30 -6 -72 -45 -104 -96 -44 -70
-165 -301 -165 -316 0 -9 -145 -277 -208 -384 -35 -59 -87 -127 -137 -180
-165 -174 -277 -335 -395 -571 -162 -322 -302 -750 -390 -1189 -17 -85 -33
-157 -36 -161 -2 -4 -30 -10 -62 -14 -49 -5 -69 -2 -141 24 -112 41 -194 87
-416 231 -410 267 -599 347 -799 338 -80 -3 -99 -8 -154 -38 -117 -62 -195
-181 -195 -294 0 -261 367 -524 1153 -826 96 -37 207 -77 245 -90 113 -37 110
-32 71 -93 -55 -85 -140 -261 -199 -412 -81 -206 -122 -389 -152 -680 -3 -33
-13 -95 -21 -139 -26 -144 -15 -345 37 -650 93 -548 397 -1118 823 -1541 378
-376 885 -623 1490 -724 352 -60 790 -44 1174 43 342 77 688 238 951 442 182
141 395 383 575 654 248 373 332 540 446 890 22 69 46 186 61 305 12 92 7 634
-7 668 -5 13 0 17 21 17 102 0 600 222 955 425 188 107 249 147 362 238 149
119 222 231 222 342 1 55 -4 69 -62 174 -327 591 -815 908 -1478 962 -77 6
-179 8 -229 4 -76 -5 -258 -23 -289 -28 -6 -1 -8 57 -7 138 5 296 -56 785
-195 1550 -22 121 -31 149 -66 210 -133 227 -357 415 -693 583 -272 135 -496
190 -625 152 -19 -6 -93 -15 -165 -20 -71 -6 -159 -14 -195 -19 -36 -5 -194
-15 -351 -22 l-286 -12 -39 21 c-80 45 -162 80 -213 91 -53 11 -59 12 -76 6z
m2306 -3181 c26 -4 40 -14 48 -31 6 -13 45 -57 87 -96 80 -75 220 -240 270
-317 16 -25 43 -64 60 -87 38 -50 139 -247 187 -363 74 -183 141 -428 162
-595 2 -22 9 -78 15 -125 28 -236 6 -617 -47 -800 -25 -87 -65 -190 -73 -190
-5 0 -20 20 -34 43 -36 63 -155 187 -234 245 -184 135 -431 242 -754 326 -126
33 -335 78 -423 91 -23 3 -51 7 -64 10 -13 2 -49 7 -80 11 -31 3 -63 8 -71 9
-9 2 -43 6 -75 10 -33 4 -71 8 -85 10 -14 2 -83 9 -155 15 -71 6 -146 12 -165
15 -227 26 -987 26 -1200 0 -19 -2 -78 -9 -130 -15 -87 -11 -185 -25 -330 -50
-310 -53 -721 -198 -933 -328 -37 -23 -69 -42 -71 -42 -8 0 -47 153 -60 235
-13 83 -14 230 -2 428 13 212 65 430 153 642 49 116 136 289 159 316 8 8 14
19 14 23 0 13 97 149 166 232 110 133 139 166 228 259 48 50 93 98 101 108 14
16 105 17 1658 17 903 0 1658 -3 1678 -6z m-1160 -3203 c170 -38 307 -111 431
-229 44 -42 88 -88 99 -103 l19 -27 -77 -57 c-96 -69 -286 -163 -413 -203
-321 -102 -752 -120 -1067 -46 -72 17 -74 18 -68 43 11 42 80 186 116 238 90
133 251 265 401 330 167 72 381 93 559 54z"/>
<path d="M2680 5076 c-138 -32 -237 -89 -310 -177 -246 -296 -320 -718 -192
-1089 l19 -55 660 -3 660 -2 21 72 c77 264 65 527 -34 761 -97 225 -276 403
-479 472 -96 33 -255 43 -345 21z m284 -166 c63 -20 94 -40 61 -40 -29 0 -120
-101 -138 -154 -48 -140 8 -282 136 -346 113 -56 260 -33 333 53 31 36 36 31
55 -57 16 -70 17 -373 2 -421 l-9 -30 -547 -3 c-433 -2 -548 0 -552 10 -5 15
-10 44 -26 143 -24 150 10 374 80 529 36 79 123 207 164 242 104 87 294 119
441 74z"/>
<path d="M5093 5074 c-294 -64 -546 -312 -637 -626 -61 -212 -56 -413 15 -633
l21 -65 760 2 761 3 24 70 c39 116 52 217 48 365 -6 262 -101 489 -274 660
-195 193 -469 279 -718 224z m288 -155 c29 -6 71 -19 93 -28 l39 -17 -36 -23
c-107 -66 -152 -223 -99 -344 82 -184 324 -227 465 -82 l37 38 11 -29 c41
-107 54 -334 26 -459 l-13 -60 -651 -3 -651 -2 -11 42 c-7 24 -15 100 -18 169
-4 100 -2 143 12 205 66 301 249 511 508 585 72 20 211 24 288 8z"/>
</g>
</svg>
